<svg xmlns="http://www.w3.org/2000/svg" xmlns:xlink="http://www.w3.org/1999/xlink" width="425" height="752" viewBox="0 0 425 752">
  <defs>
    <linearGradient id="linear-gradient" x1="595.303" y1="-155.831" x2="595.303" y2="-154.591" gradientUnits="objectBoundingBox">
      <stop offset="0" stop-color="#4e3c4c"/>
      <stop offset="1" stop-color="#684566"/>
    </linearGradient>
    <linearGradient id="linear-gradient-2" x1="817.446" y1="-213.893" x2="817.446" y2="-212.942" xlink:href="#linear-gradient"/>
    <linearGradient id="linear-gradient-3" x1="1343.032" y1="-351.533" x2="1343.032" y2="-350.556" xlink:href="#linear-gradient"/>
    <linearGradient id="linear-gradient-4" x1="2079.587" y1="-544.168" x2="2079.587" y2="-543.481" xlink:href="#linear-gradient"/>
    <linearGradient id="linear-gradient-5" x1="595.303" y1="22.38" x2="595.303" y2="23.619" xlink:href="#linear-gradient"/>
    <linearGradient id="linear-gradient-6" x1="817.446" y1="28.172" x2="817.446" y2="29.123" xlink:href="#linear-gradient"/>
    <linearGradient id="linear-gradient-7" x1="1343.032" y1="42.8" x2="1343.032" y2="43.776" xlink:href="#linear-gradient"/>
    <linearGradient id="linear-gradient-8" x1="2079.587" y1="62.643" x2="2079.587" y2="63.332" xlink:href="#linear-gradient"/>
    <linearGradient id="linear-gradient-9" x1="428.654" y1="-155.831" x2="428.654" y2="-154.591" xlink:href="#linear-gradient"/>
    <linearGradient id="linear-gradient-10" x1="591.254" y1="-213.893" x2="591.254" y2="-212.942" xlink:href="#linear-gradient"/>
    <linearGradient id="linear-gradient-11" x1="973.672" y1="-351.533" x2="973.672" y2="-350.556" xlink:href="#linear-gradient"/>
    <linearGradient id="linear-gradient-12" x1="1514.999" y1="-544.763" x2="1514.999" y2="-544.075" xlink:href="#linear-gradient"/>
    <linearGradient id="linear-gradient-13" x1="428.654" y1="22.38" x2="428.654" y2="23.619" xlink:href="#linear-gradient"/>
    <linearGradient id="linear-gradient-14" x1="591.254" y1="28.172" x2="591.254" y2="29.123" xlink:href="#linear-gradient"/>
    <linearGradient id="linear-gradient-15" x1="973.672" y1="42.8" x2="973.672" y2="43.776" xlink:href="#linear-gradient"/>
    <linearGradient id="linear-gradient-16" x1="1514.999" y1="62.598" x2="1514.999" y2="63.286" xlink:href="#linear-gradient"/>
    <linearGradient id="linear-gradient-17" x1="10.999" y1="63.666" x2="9.821" y2="63.666" xlink:href="#linear-gradient"/>
    <linearGradient id="linear-gradient-18" x1="514.659" y1="-183.855" x2="514.659" y2="-182.615" xlink:href="#linear-gradient"/>
    <linearGradient id="linear-gradient-19" x1="705.952" y1="-253.67" x2="705.952" y2="-252.719" xlink:href="#linear-gradient"/>
    <linearGradient id="linear-gradient-20" x1="1159.721" y1="-418.88" x2="1159.721" y2="-417.903" xlink:href="#linear-gradient"/>
    <linearGradient id="linear-gradient-21" x1="1795.152" y1="-650.553" x2="1795.152" y2="-649.866" xlink:href="#linear-gradient"/>
    <linearGradient id="linear-gradient-22" x1="508.197" y1="56.998" x2="508.197" y2="58.238" xlink:href="#linear-gradient"/>
    <linearGradient id="linear-gradient-23" x1="698.978" y1="75.147" x2="698.978" y2="76.098" xlink:href="#linear-gradient"/>
    <linearGradient id="linear-gradient-24" x1="1150.191" y1="119.247" x2="1150.191" y2="120.224" xlink:href="#linear-gradient"/>
    <linearGradient id="linear-gradient-25" x1="1784.065" y1="180.211" x2="1784.065" y2="180.898" xlink:href="#linear-gradient"/>
    <linearGradient id="linear-gradient-26" x1="515.849" y1="-190.356" x2="515.849" y2="-189.117" xlink:href="#linear-gradient"/>
    <linearGradient id="linear-gradient-27" x1="709.493" y1="-260.69" x2="709.493" y2="-259.739" xlink:href="#linear-gradient"/>
    <linearGradient id="linear-gradient-28" x1="1168.37" y1="-428.069" x2="1168.37" y2="-427.092" xlink:href="#linear-gradient"/>
    <linearGradient id="linear-gradient-29" x1="1811.986" y1="-662.21" x2="1811.986" y2="-661.522" xlink:href="#linear-gradient"/>
    <linearGradient id="linear-gradient-30" x1="509.385" y1="50.497" x2="509.385" y2="51.737" xlink:href="#linear-gradient"/>
    <linearGradient id="linear-gradient-31" x1="702.519" y1="68.127" x2="702.519" y2="69.078" xlink:href="#linear-gradient"/>
    <linearGradient id="linear-gradient-32" x1="1158.487" y1="110.186" x2="1158.487" y2="111.163" xlink:href="#linear-gradient"/>
    <linearGradient id="linear-gradient-33" x1="1799.708" y1="169.21" x2="1799.708" y2="169.899" xlink:href="#linear-gradient"/>
    <linearGradient id="linear-gradient-34" x1="56.023" y1="81.483" x2="54.844" y2="81.483" xlink:href="#linear-gradient"/>
    <linearGradient id="linear-gradient-35" x1="0.349" y1="0.934" x2="0.349" y2="-0.012" gradientUnits="objectBoundingBox">
      <stop offset="0" stop-color="#d58b00"/>
      <stop offset="1" stop-color="#ffce72"/>
    </linearGradient>
    <linearGradient id="linear-gradient-36" x1="-0.271" y1="0.212" x2="1.658" y2="0.212" gradientUnits="objectBoundingBox">
      <stop offset="0" stop-color="#ffa700"/>
      <stop offset="1" stop-color="#ffd689"/>
    </linearGradient>
    <clipPath id="clip-iPhone_XR_XS_Max_11_1">
      <rect width="425" height="752"/>
    </clipPath>
  </defs>
  <g id="iPhone_XR_XS_Max_11_1" data-name="iPhone XR/XS Max/11 – 1" clip-path="url(#clip-iPhone_XR_XS_Max_11_1)">
    <g id="Group_1509" data-name="Group 1509" transform="translate(59.928 -23.531) rotate(90)">
      <rect id="Rectangle_3216" data-name="Rectangle 3216" width="119.196" height="119.073" rx="59.536" fill="#f74e2e"/>
      <g id="Group_1231" data-name="Group 1231" transform="translate(17.875 17.163)">
        <g id="Group_1223" data-name="Group 1223" transform="translate(11.604 11.746)">
          <g id="Group_1221" data-name="Group 1221" transform="translate(0)">
            <g id="Group_1217" data-name="Group 1217" transform="translate(0 44.123)">
              <path id="Path_1240" data-name="Path 1240" d="M6.147,3.075A3.074,3.074,0,1,1,3.072,0,3.074,3.074,0,0,1,6.147,3.075Z" transform="translate(0 12.108)" fill="url(#linear-gradient)"/>
              <path id="Path_1241" data-name="Path 1241" d="M4.476,2.236A2.238,2.238,0,1,1,2.236,0,2.239,2.239,0,0,1,4.476,2.236Z" transform="translate(6.874 6.906)" fill="url(#linear-gradient-2)"/>
              <path id="Path_1242" data-name="Path 1242" d="M2.724,1.362A1.362,1.362,0,1,1,1.362,0,1.36,1.36,0,0,1,2.724,1.362Z" transform="translate(12.518 3.011)" fill="url(#linear-gradient-3)"/>
              <path id="Path_1243" data-name="Path 1243" d="M1.759.878A.879.879,0,1,1,.878,0,.88.88,0,0,1,1.759.878Z" transform="translate(16.497)" fill="url(#linear-gradient-4)"/>
            </g>
            <g id="Group_1218" data-name="Group 1218" transform="translate(0)">
              <path id="Path_1244" data-name="Path 1244" d="M6.147,3.075A3.074,3.074,0,1,0,3.072,6.151,3.077,3.077,0,0,0,6.147,3.075Z" fill="url(#linear-gradient-5)"/>
              <path id="Path_1245" data-name="Path 1245" d="M4.476,2.24a2.238,2.238,0,1,0-2.24,2.24A2.241,2.241,0,0,0,4.476,2.24Z" transform="translate(6.874 6.874)" fill="url(#linear-gradient-6)"/>
              <path id="Path_1246" data-name="Path 1246" d="M2.724,1.362A1.362,1.362,0,1,0,1.362,2.724,1.362,1.362,0,0,0,2.724,1.362Z" transform="translate(12.518 12.521)" fill="url(#linear-gradient-7)"/>
              <path id="Path_1247" data-name="Path 1247" d="M1.759.878a.879.879,0,1,0-.881.878A.879.879,0,0,0,1.759.878Z" transform="translate(16.497 16.5)" fill="url(#linear-gradient-8)"/>
            </g>
            <g id="Group_1219" data-name="Group 1219" transform="translate(44.415 44.124)">
              <path id="Path_1248" data-name="Path 1248" d="M0,3.075A3.074,3.074,0,1,0,3.075,0,3.074,3.074,0,0,0,0,3.075Z" transform="translate(12.107 12.107)" fill="url(#linear-gradient-9)"/>
              <path id="Path_1249" data-name="Path 1249" d="M0,2.236A2.238,2.238,0,1,0,2.24,0,2.237,2.237,0,0,0,0,2.236Z" transform="translate(6.905 6.905)" fill="url(#linear-gradient-10)"/>
              <path id="Path_1250" data-name="Path 1250" d="M0,1.362A1.363,1.363,0,1,0,1.362,0,1.36,1.36,0,0,0,0,1.362Z" transform="translate(3.01 3.01)" fill="url(#linear-gradient-11)"/>
              <circle id="Ellipse_1152" data-name="Ellipse 1152" cx="0.878" cy="0.878" r="0.878" fill="url(#linear-gradient-12)"/>
            </g>
            <g id="Group_1220" data-name="Group 1220" transform="translate(44.415 0)">
              <path id="Path_1251" data-name="Path 1251" d="M0,3.075A3.074,3.074,0,1,1,3.075,6.151,3.077,3.077,0,0,1,0,3.075Z" transform="translate(12.107)" fill="url(#linear-gradient-13)"/>
              <path id="Path_1252" data-name="Path 1252" d="M0,2.24a2.238,2.238,0,1,1,2.24,2.24A2.239,2.239,0,0,1,0,2.24Z" transform="translate(6.905 6.874)" fill="url(#linear-gradient-14)"/>
              <path id="Path_1253" data-name="Path 1253" d="M0,1.362A1.363,1.363,0,1,1,1.362,2.724,1.362,1.362,0,0,1,0,1.362Z" transform="translate(3.01 12.521)" fill="url(#linear-gradient-15)"/>
              <circle id="Ellipse_1153" data-name="Ellipse 1153" cx="0.878" cy="0.878" r="0.878" transform="translate(0 16.499)" fill="url(#linear-gradient-16)"/>
            </g>
          </g>
          <g id="Group_1222" data-name="Group 1222" transform="translate(25.558 25.5)">
            <path id="Path_1254" data-name="Path 1254" d="M0,5.641a5.639,5.639,0,1,1,5.641,5.638A5.642,5.642,0,0,1,0,5.641Z" fill="url(#linear-gradient-17)"/>
          </g>
        </g>
        <g id="Group_1230" data-name="Group 1230" transform="translate(0)">
          <g id="Group_1228" data-name="Group 1228">
            <g id="Group_1224" data-name="Group 1224" transform="translate(0 39.759)">
              <circle id="Ellipse_1154" data-name="Ellipse 1154" cx="3.074" cy="3.074" r="3.074" fill="url(#linear-gradient-18)"/>
              <circle id="Ellipse_1155" data-name="Ellipse 1155" cx="2.239" cy="2.239" r="2.239" transform="translate(9.375 0.835)" fill="url(#linear-gradient-19)"/>
              <path id="Path_1255" data-name="Path 1255" d="M2.326,2.326A1.362,1.362,0,1,1,2.326.4,1.367,1.367,0,0,1,2.326,2.326Z" transform="translate(16.997 1.712)" fill="url(#linear-gradient-20)"/>
              <path id="Path_1256" data-name="Path 1256" d="M1.5,1.5A.879.879,0,1,1,1.5.259.88.88,0,0,1,1.5,1.5Z" transform="translate(22.422 2.195)" fill="url(#linear-gradient-21)"/>
            </g>
            <g id="Group_1225" data-name="Group 1225" transform="translate(39.76)">
              <path id="Path_1257" data-name="Path 1257" d="M5.247,5.247a3.074,3.074,0,1,0-4.347,0A3.074,3.074,0,0,0,5.247,5.247Z" fill="url(#linear-gradient-22)"/>
              <circle id="Ellipse_1156" data-name="Ellipse 1156" cx="2.239" cy="2.239" r="2.239" transform="translate(0.836 9.373)" fill="url(#linear-gradient-23)"/>
              <circle id="Ellipse_1157" data-name="Ellipse 1157" cx="1.362" cy="1.362" r="1.362" transform="translate(1.713 16.995)" fill="url(#linear-gradient-24)"/>
              <path id="Path_1258" data-name="Path 1258" d="M1.5,1.5a.879.879,0,1,0-1.242,0A.875.875,0,0,0,1.5,1.5Z" transform="translate(2.196 22.421)" fill="url(#linear-gradient-25)"/>
            </g>
            <g id="Group_1226" data-name="Group 1226" transform="translate(39.968 61.695)">
              <circle id="Ellipse_1158" data-name="Ellipse 1158" cx="3.074" cy="3.074" r="3.074" transform="translate(0 18.032)" fill="url(#linear-gradient-26)"/>
              <circle id="Ellipse_1159" data-name="Ellipse 1159" cx="2.239" cy="2.239" r="2.239" transform="translate(0.835 10.328)" fill="url(#linear-gradient-27)"/>
              <path id="Path_1259" data-name="Path 1259" d="M.4.4A1.36,1.36,0,1,0,2.323.4,1.358,1.358,0,0,0,.4.4Z" transform="translate(1.712 4.46)" fill="url(#linear-gradient-28)"/>
              <circle id="Ellipse_1160" data-name="Ellipse 1160" cx="0.878" cy="0.878" r="0.878" transform="translate(2.195)" fill="url(#linear-gradient-29)"/>
            </g>
            <g id="Group_1227" data-name="Group 1227" transform="translate(61.696 39.967)">
              <path id="Path_1260" data-name="Path 1260" d="M.9.9a3.074,3.074,0,1,1,0,4.347A3.073,3.073,0,0,1,.9.9Z" transform="translate(18.033)" fill="url(#linear-gradient-30)"/>
              <circle id="Ellipse_1161" data-name="Ellipse 1161" cx="2.239" cy="2.239" r="2.239" transform="translate(10.328 0.835)" fill="url(#linear-gradient-31)"/>
              <circle id="Ellipse_1162" data-name="Ellipse 1162" cx="1.362" cy="1.362" r="1.362" transform="translate(4.459 1.711)" fill="url(#linear-gradient-32)"/>
              <path id="Path_1261" data-name="Path 1261" d="M.259.257a.879.879,0,1,1,0,1.242A.88.88,0,0,1,.259.257Z" transform="translate(0 2.196)" fill="url(#linear-gradient-33)"/>
            </g>
          </g>
          <g id="Group_1229" data-name="Group 1229" transform="translate(37.238 37.165)">
            <path id="Path_1262" data-name="Path 1262" d="M1.651,1.653a5.64,5.64,0,1,1,0,7.974A5.639,5.639,0,0,1,1.651,1.653Z" fill="url(#linear-gradient-34)"/>
          </g>
        </g>
      </g>
    </g>
    <g id="Group_1510" data-name="Group 1510" transform="translate(320.708 -18.238) rotate(90)">
      <path id="Path_1179" data-name="Path 1179" d="M118.857,0,59.429,85.413,0,0Z" fill="url(#linear-gradient-35)"/>
      <path id="Path_1180" data-name="Path 1180" d="M27.753,0,13.877,19.779,0,0Z" transform="translate(45.057 99.868)" fill="#f8c360"/>
      <path id="Path_1181" data-name="Path 1181" d="M18.885,0,9.443,13.459,0,0Z" transform="translate(49.432 136.027)" fill="#f8c360"/>
      <path id="Path_1182" data-name="Path 1182" d="M49.222,0,24.611,35.08,0,0Z" transform="translate(35.263 19.852)" fill="#f74e2e"/>
    </g>
    <g id="Group_1511" data-name="Group 1511" transform="translate(335.56 -5.44)">
      <g id="Group_1379" data-name="Group 1379" transform="translate(-1 238.001) rotate(-90)">
        <path id="Subtraction_23" data-name="Subtraction 23" d="M119,125.882H.009C0,125.349,0,124.844,0,124.381a125.467,125.467,0,0,1,2.4-24.44A123.8,123.8,0,0,1,20.2,56.378,124.937,124.937,0,0,1,72.474,11.238,123.878,123.878,0,0,1,119,0V125.881Z" fill="#ffa700"/>
        <path id="Subtraction_24" data-name="Subtraction 24" d="M81,87.8H.006c0-.381-.006-.709-.006-1a86.678,86.678,0,0,1,23.531-59.5A87.257,87.257,0,0,1,49.254,8.39,86.232,86.232,0,0,1,81,0V87.8Z" transform="translate(38 38.084)" fill="#f4edf7"/>
        <path id="Subtraction_25" data-name="Subtraction 25" d="M50,56.631H0V56.5q0-.186,0-.373A56.506,56.506,0,0,1,50,0V56.63Z" transform="translate(69 69.251)" fill="#f74e2e"/>
      </g>
      <g id="Group_1380" data-name="Group 1380" transform="translate(125.882) rotate(90)">
        <path id="Subtraction_23-2" data-name="Subtraction 23" d="M119,0H.009C0,.533,0,1.038,0,1.5a125.466,125.466,0,0,0,2.4,24.44A123.923,123.923,0,0,0,9.284,48.762,124.441,124.441,0,0,0,20.2,69.5a125.422,125.422,0,0,0,14.477,18.2,125.455,125.455,0,0,0,17.581,15.2,124.693,124.693,0,0,0,20.222,11.737,123.866,123.866,0,0,0,22.4,7.812A124.8,124.8,0,0,0,119,125.882V0Z" transform="translate(0 0)" fill="#f74e2e"/>
        <path id="Subtraction_24-2" data-name="Subtraction 24" d="M81,0H.006C0,.382,0,.71,0,1a86.678,86.678,0,0,0,23.531,59.5A87.819,87.819,0,0,0,35.486,71.117a87.224,87.224,0,0,0,13.768,8.291A86.232,86.232,0,0,0,81,87.8V0Z" transform="translate(38)" fill="#f4edf7"/>
        <path id="Subtraction_25-2" data-name="Subtraction 25" d="M50,0H0V.128Q0,.314,0,.5A56.254,56.254,0,0,0,3.855,21.056,56.315,56.315,0,0,0,14.446,38.235,56.387,56.387,0,0,0,50,56.631V0Z" transform="translate(69 0)" fill="#007e65"/>
      </g>
    </g>
    <g id="Group_1512" data-name="Group 1512" transform="translate(-315.572 212.196) rotate(90)">
      <g id="Group_1247" data-name="Group 1247" transform="translate(25 -787)">
        <g id="Group_1239" data-name="Group 1239" transform="translate(13.672 13.499)">
          <g id="Group_1237" data-name="Group 1237" transform="translate(0)">
            <g id="Group_1233" data-name="Group 1233" transform="translate(51.337 51.682)">
              <path id="Path_1263" data-name="Path 1263" d="M3.578,0A3.577,3.577,0,1,1,0,3.575,3.574,3.574,0,0,1,3.578,0Z" transform="translate(14.088 14.088)" fill="#fff"/>
              <path id="Path_1264" data-name="Path 1264" d="M2.606,0A2.6,2.6,0,1,1,0,2.6,2.6,2.6,0,0,1,2.606,0Z" transform="translate(8.035 8.035)" fill="#fff"/>
              <path id="Path_1265" data-name="Path 1265" d="M1.588,0A1.585,1.585,0,1,1,0,1.585,1.585,1.585,0,0,1,1.588,0Z" transform="translate(3.503 3.503)" fill="#fff"/>
              <path id="Path_1266" data-name="Path 1266" d="M1.025,0A1.021,1.021,0,1,1,0,1.021,1.022,1.022,0,0,1,1.025,0Z" transform="translate(0 0)" fill="#fff"/>
            </g>
            <g id="Group_1234" data-name="Group 1234" transform="translate(0 51.682)">
              <path id="Path_1267" data-name="Path 1267" d="M3.575,0A3.577,3.577,0,1,0,7.153,3.575,3.574,3.574,0,0,0,3.575,0Z" transform="translate(0 14.088)" fill="#fff"/>
              <path id="Path_1268" data-name="Path 1268" d="M2.6,0A2.6,2.6,0,1,0,5.208,2.6,2.6,2.6,0,0,0,2.6,0Z" transform="translate(7.998 8.035)" fill="#fff"/>
              <path id="Path_1269" data-name="Path 1269" d="M1.584,0A1.585,1.585,0,1,0,3.169,1.585,1.585,1.585,0,0,0,1.584,0Z" transform="translate(14.565 3.503)" fill="#fff"/>
              <circle id="Ellipse_1163" data-name="Ellipse 1163" cx="1.022" cy="1.022" r="1.022" transform="translate(19.195 0)" fill="#fff"/>
            </g>
            <g id="Group_1235" data-name="Group 1235" transform="translate(51.337 0)">
              <path id="Path_1270" data-name="Path 1270" d="M3.578,7.153A3.577,3.577,0,1,0,0,3.578,3.574,3.574,0,0,0,3.578,7.153Z" transform="translate(14.088 0)" fill="#fff"/>
              <path id="Path_1271" data-name="Path 1271" d="M2.606,5.212A2.606,2.606,0,1,0,0,2.606,2.6,2.6,0,0,0,2.606,5.212Z" transform="translate(8.035 7.998)" fill="#fff"/>
              <path id="Path_1272" data-name="Path 1272" d="M1.588,3.169A1.585,1.585,0,1,0,0,1.585,1.585,1.585,0,0,0,1.588,3.169Z" transform="translate(3.503 14.569)" fill="#fff"/>
              <path id="Path_1273" data-name="Path 1273" d="M1.025,2.043A1.021,1.021,0,1,0,0,1.021,1.022,1.022,0,0,0,1.025,2.043Z" transform="translate(0 19.199)" fill="#fff"/>
            </g>
            <g id="Group_1236" data-name="Group 1236" transform="translate(0)">
              <path id="Path_1274" data-name="Path 1274" d="M3.575,7.153A3.577,3.577,0,1,1,7.153,3.578,3.574,3.574,0,0,1,3.575,7.153Z" fill="#fff"/>
              <path id="Path_1275" data-name="Path 1275" d="M2.6,5.212A2.606,2.606,0,1,1,5.208,2.606,2.6,2.6,0,0,1,2.6,5.212Z" transform="translate(7.998 7.998)" fill="#fff"/>
              <path id="Path_1276" data-name="Path 1276" d="M1.584,3.169A1.585,1.585,0,1,1,3.169,1.585,1.585,1.585,0,0,1,1.584,3.169Z" transform="translate(14.565 14.569)" fill="#fff"/>
              <circle id="Ellipse_1164" data-name="Ellipse 1164" cx="1.022" cy="1.022" r="1.022" transform="translate(19.195 19.198)" fill="#fff"/>
            </g>
          </g>
          <g id="Group_1238" data-name="Group 1238" transform="translate(29.667 30.058)">
            <path id="Path_1277" data-name="Path 1277" d="M6.564,13.123a6.562,6.562,0,1,1,6.564-6.56A6.562,6.562,0,0,1,6.564,13.123Z" transform="translate(0 0)" fill="#fff"/>
          </g>
        </g>
        <g id="Group_1246" data-name="Group 1246" transform="translate(0 0)">
          <g id="Group_1244" data-name="Group 1244" transform="translate(0)">
            <g id="Group_1240" data-name="Group 1240" transform="translate(46.263 71.788)">
              <circle id="Ellipse_1165" data-name="Ellipse 1165" cx="3.577" cy="3.577" r="3.577" transform="translate(0 20.981)" fill="#fff"/>
              <path id="Path_1278" data-name="Path 1278" d="M4.447.763a2.6,2.6,0,1,1-3.684,0A2.6,2.6,0,0,1,4.447.763Z" transform="translate(0.972 12.016)" fill="#fff"/>
              <path id="Path_1279" data-name="Path 1279" d="M2.706.465a1.585,1.585,0,1,1-2.242,0A1.584,1.584,0,0,1,2.706.465Z" transform="translate(1.992 5.188)" fill="#fff"/>
              <circle id="Ellipse_1166" data-name="Ellipse 1166" cx="1.022" cy="1.022" r="1.022" transform="translate(2.554 0)" fill="#fff"/>
            </g>
            <g id="Group_1241" data-name="Group 1241" transform="translate(0 46.504)">
              <path id="Path_1280" data-name="Path 1280" d="M6.105,1.048a3.576,3.576,0,1,0,0,5.058A3.576,3.576,0,0,0,6.105,1.048Z" fill="#fff"/>
              <path id="Path_1281" data-name="Path 1281" d="M4.447.763a2.6,2.6,0,1,0,0,3.684A2.6,2.6,0,0,0,4.447.763Z" transform="translate(10.907 0.972)" fill="#fff"/>
              <path id="Path_1282" data-name="Path 1282" d="M2.706.462a1.585,1.585,0,1,0,0,2.242A1.591,1.591,0,0,0,2.706.462Z" transform="translate(19.774 1.994)" fill="#fff"/>
              <path id="Path_1283" data-name="Path 1283" d="M1.747.3a1.022,1.022,0,1,0,0,1.446A1.024,1.024,0,0,0,1.747.3Z" transform="translate(26.088 2.555)" fill="#fff"/>
            </g>
            <g id="Group_1242" data-name="Group 1242" transform="translate(71.788 46.264)">
              <circle id="Ellipse_1167" data-name="Ellipse 1167" cx="3.577" cy="3.577" r="3.577" transform="translate(20.981 0)" fill="#fff"/>
              <circle id="Ellipse_1168" data-name="Ellipse 1168" cx="2.605" cy="2.605" r="2.605" transform="translate(12.017 0.972)" fill="#fff"/>
              <circle id="Ellipse_1169" data-name="Ellipse 1169" cx="1.585" cy="1.585" r="1.585" transform="translate(5.188 1.992)" fill="#fff"/>
              <path id="Path_1284" data-name="Path 1284" d="M.3,1.744A1.022,1.022,0,1,0,.3.3,1.024,1.024,0,0,0,.3,1.744Z" transform="translate(0 2.556)" fill="#fff"/>
            </g>
            <g id="Group_1243" data-name="Group 1243" transform="translate(46.504 0)">
              <path id="Path_1285" data-name="Path 1285" d="M1.048,6.105a3.576,3.576,0,1,1,5.058,0A3.576,3.576,0,0,1,1.048,6.105Z" fill="#fff"/>
              <circle id="Ellipse_1170" data-name="Ellipse 1170" cx="2.605" cy="2.605" r="2.605" transform="translate(0.972 10.908)" fill="#fff"/>
              <path id="Path_1286" data-name="Path 1286" d="M.465,2.7a1.585,1.585,0,1,1,2.242,0A1.584,1.584,0,0,1,.465,2.7Z" transform="translate(1.991 19.777)" fill="#fff"/>
              <circle id="Ellipse_1171" data-name="Ellipse 1171" cx="1.022" cy="1.022" r="1.022" transform="translate(2.555 26.09)" fill="#fff"/>
            </g>
          </g>
          <g id="Group_1245" data-name="Group 1245" transform="translate(43.244 43.469)">
            <path id="Path_1287" data-name="Path 1287" d="M1.923,11.2a6.561,6.561,0,1,1,9.278,0A6.556,6.556,0,0,1,1.923,11.2Z" transform="translate(0)" fill="#fff"/>
          </g>
        </g>
      </g>
    </g>
    <g id="Group_1513" data-name="Group 1513" transform="translate(-156.719 340.35) rotate(90)">
      <path id="Path_1288" data-name="Path 1288" d="M63.142,229.641H55.929c-20.344,0-38.326-14.535-49.02-36.738-.1-.214-.177-.469-.255-.683a97.685,97.685,0,0,1-3.225-10.634A113.762,113.762,0,0,1,0,155.482V0H119.075V119.034c0,26.431-.916,46.861-3.432,62.553a96.044,96.044,0,0,1-3.225,10.634,7.174,7.174,0,0,1-.252.683C101.472,215.106,83.49,229.641,63.142,229.641Z" transform="translate(13 -764)" fill="url(#linear-gradient-36)"/>
      <g id="Group_1249" data-name="Group 1249" transform="translate(55.879 -648.777)">
        <rect id="Rectangle_3218" data-name="Rectangle 3218" width="22.938" height="22.938" transform="translate(32.44 16.22) rotate(135)" fill="#f4edf7"/>
        <rect id="Rectangle_3219" data-name="Rectangle 3219" width="13.764" height="13.764" transform="translate(25.953 45.451) rotate(135)" fill="#f4edf7"/>
        <rect id="Rectangle_3220" data-name="Rectangle 3220" width="9.059" height="9.059" transform="translate(22.625 66.79) rotate(135)" fill="#f4edf7"/>
      </g>
    </g>
    <g id="Group_1514" data-name="Group 1514" transform="translate(0 654.552)" style="isolation: isolate">
      <path id="Path_1176" data-name="Path 1176" d="M0,97.267H198.678V.038H99.337V0s-.886,0-2.474.109c-2.435.143-6.608.469-11.854,1.3-3.137.5-6.646,1.19-10.412,2.1-3.731.9-7.72,2.024-11.858,3.436A103.45,103.45,0,0,0,52.29,11.1,92.8,92.8,0,0,0,23.742,30.662,81,81,0,0,0,3.137,68.41,110.459,110.459,0,0,0,0,93.035Z" transform="translate(0)" fill="#007e65"/>
      <g id="Group_1187" data-name="Group 1187" transform="translate(55.347 0.001)">
        <rect id="Rectangle_3211" data-name="Rectangle 3211" width="10.197" height="97.266" transform="translate(109.091)" fill="#25d468" opacity="0.603"/>
        <rect id="Rectangle_3212" data-name="Rectangle 3212" width="10.233" height="97.266" transform="translate(87.251 0)" fill="#25d468" opacity="0.603"/>
        <rect id="Rectangle_3213" data-name="Rectangle 3213" width="10.233" height="97.266" transform="translate(65.448 0)" fill="#25d468" opacity="0.603"/>
        <rect id="Rectangle_3214" data-name="Rectangle 3214" width="10.233" height="97.266" transform="translate(43.644 0)" fill="#25d468" opacity="0.603"/>
        <path id="Path_1177" data-name="Path 1177" d="M0,95.855H10.195V0C7.123.5,3.687,1.19,0,2.1Z" transform="translate(21.842 1.411)" fill="#25d468" opacity="0.603"/>
        <path id="Path_1178" data-name="Path 1178" d="M0,90.324H10.232V0A100.052,100.052,0,0,0,0,4.157Z" transform="translate(0 6.942)" fill="#25d468" opacity="0.603"/>
      </g>
    </g>
    <g id="Group_1515" data-name="Group 1515" transform="translate(196.56 655.263)">
      <g id="Group_1379-2" data-name="Group 1379" transform="translate(0 119.001) rotate(-90)">
        <path id="Subtraction_23-3" data-name="Subtraction 23" d="M119,0H.009C0,.533,0,1.038,0,1.5a125.467,125.467,0,0,0,2.4,24.44A123.924,123.924,0,0,0,9.283,48.762,124.441,124.441,0,0,0,20.2,69.5a125.422,125.422,0,0,0,14.477,18.2,125.455,125.455,0,0,0,17.581,15.2,124.693,124.693,0,0,0,20.222,11.737,123.865,123.865,0,0,0,22.4,7.812A124.8,124.8,0,0,0,119,125.882V0Z" transform="translate(0 0)" fill="#ffa700"/>
        <path id="Subtraction_24-3" data-name="Subtraction 24" d="M81,0H.006C0,.382,0,.71,0,1a86.678,86.678,0,0,0,23.531,59.5A87.819,87.819,0,0,0,35.486,71.117a87.223,87.223,0,0,0,13.768,8.291A86.232,86.232,0,0,0,81,87.8V0Z" transform="translate(38)" fill="#f4edf7"/>
        <path id="Subtraction_25-3" data-name="Subtraction 25" d="M50,0H0V.128Q0,.314,0,.5A56.254,56.254,0,0,0,3.855,21.056,56.315,56.315,0,0,0,14.446,38.235,56.387,56.387,0,0,0,50,56.631V0Z" transform="translate(69 0)" fill="#f74e2e"/>
      </g>
    </g>
    <g id="Group_1516" data-name="Group 1516" transform="translate(446.442 536.263) rotate(90)">
      <path id="Subtraction_23-4" data-name="Subtraction 23" d="M119,0H.009C0,.533,0,1.038,0,1.5a125.466,125.466,0,0,0,2.4,24.44A123.923,123.923,0,0,0,9.284,48.762,124.441,124.441,0,0,0,20.2,69.5a125.422,125.422,0,0,0,14.477,18.2,125.455,125.455,0,0,0,17.581,15.2,124.693,124.693,0,0,0,20.222,11.737,123.866,123.866,0,0,0,22.4,7.812A124.8,124.8,0,0,0,119,125.882V0Z" transform="translate(0 0)" fill="#f74e2e"/>
      <path id="Subtraction_24-4" data-name="Subtraction 24" d="M81,0H.006C0,.382,0,.71,0,1a86.678,86.678,0,0,0,23.531,59.5A87.819,87.819,0,0,0,35.486,71.117a87.224,87.224,0,0,0,13.768,8.291A86.232,86.232,0,0,0,81,87.8V0Z" transform="translate(38)" fill="#f4edf7"/>
      <path id="Subtraction_25-4" data-name="Subtraction 25" d="M50,0H0V.128Q0,.314,0,.5A56.254,56.254,0,0,0,3.855,21.056,56.315,56.315,0,0,0,14.446,38.235,56.387,56.387,0,0,0,50,56.631V0Z" transform="translate(69 0)" fill="#007e65"/>
    </g>
  </g>
</svg>
